<?xml version="1.0" encoding="UTF-8"?>
<svg width="200" height="200" viewBox="0 0 200 200" xmlns="http://www.w3.org/2000/svg">
  <defs>
    <!-- Glow effect -->
    <filter id="glow" x="-50%" y="-50%" width="200%" height="200%">
      <feGaussianBlur stdDeviation="2" result="blur"/>
      <feComposite in="SourceGraphic" in2="blur" operator="over"/>
    </filter>
    
    <!-- Main pattern -->
    <pattern id="tech-pattern" x="0" y="0" width="200" height="200" patternUnits="userSpaceOnUse">
      <!-- Grid Lines -->
      <g stroke="#00f2fe" stroke-width="0.5" opacity="0.15">
        <!-- Horizontal Lines -->
        <line x1="0" y1="20" x2="200" y2="20"/>
        <line x1="0" y1="40" x2="200" y2="40"/>
        <line x1="0" y1="60" x2="200" y2="60"/>
        <line x1="0" y1="80" x2="200" y2="80"/>
        <line x1="0" y1="100" x2="200" y2="100"/>
        <line x1="0" y1="120" x2="200" y2="120"/>
        <line x1="0" y1="140" x2="200" y2="140"/>
        <line x1="0" y1="160" x2="200" y2="160"/>
        <line x1="0" y1="180" x2="200" y2="180"/>
        
        <!-- Vertical Lines -->
        <line x1="20" y1="0" x2="20" y2="200"/>
        <line x1="40" y1="0" x2="40" y2="200"/>
        <line x1="60" y1="0" x2="60" y2="200"/>
        <line x1="80" y1="0" x2="80" y2="200"/>
        <line x1="100" y1="0" x2="100" y2="200"/>
        <line x1="120" y1="0" x2="120" y2="200"/>
        <line x1="140" y1="0" x2="140" y2="200"/>
        <line x1="160" y1="0" x2="160" y2="200"/>
        <line x1="180" y1="0" x2="180" y2="200"/>
      </g>

      <!-- Circuit Elements -->
      <g filter="url(#glow)" opacity="0.3">
        <!-- Circuit Nodes -->
        <circle cx="40" cy="40" r="2" fill="#00f2fe"/>
        <circle cx="80" cy="80" r="2" fill="#00f2fe"/>
        <circle cx="120" cy="120" r="2" fill="#00f2fe"/>
        <circle cx="160" cy="160" r="2" fill="#00f2fe"/>
        <circle cx="40" cy="160" r="2" fill="#00f2fe"/>
        <circle cx="160" cy="40" r="2" fill="#00f2fe"/>
        
        <!-- Circuit Connections -->
        <path d="M40,40 L80,80 L120,120 L160,160" stroke="#00f2fe" stroke-width="1" fill="none"/>
        <path d="M40,160 L80,120 L120,80 L160,40" stroke="#00f2fe" stroke-width="1" fill="none"/>
        
        <!-- Hexagon Patterns -->
        <g transform="translate(100,100)">
          <path d="M0,-20 L17.3,-10 L17.3,10 L0,20 L-17.3,10 L-17.3,-10 Z" stroke="#00f2fe" stroke-width="0.5" fill="none"/>
          <path d="M0,-40 L34.6,-20 L34.6,20 L0,40 L-34.6,20 L-34.6,-20 Z" stroke="#00f2fe" stroke-width="0.5" fill="none"/>
        </g>
      </g>

      <!-- Tech Icons -->
      <g opacity="0.2">
        <!-- Computer Icon -->
        <path d="M20,20 L40,20 L40,40 L20,40 Z" stroke="#00f2fe" stroke-width="0.5" fill="none"/>
        <line x1="30" y1="40" x2="30" y2="45" stroke="#00f2fe" stroke-width="0.5"/>
        <line x1="25" y1="45" x2="35" y2="45" stroke="#00f2fe" stroke-width="0.5"/>
        
        <!-- Code Icon -->
        <path d="M140,20 L160,20 L160,40 L140,40 Z" stroke="#00f2fe" stroke-width="0.5" fill="none"/>
        <line x1="145" y1="25" x2="155" y2="35" stroke="#00f2fe" stroke-width="0.5"/>
        <line x1="145" y1="35" x2="155" y2="25" stroke="#00f2fe" stroke-width="0.5"/>
      </g>
    </pattern>
  </defs>
  
  <!-- Apply the pattern -->
  <rect x="0" y="0" width="200" height="200" fill="url(#tech-pattern)"/>
</svg> 